<svg xmlns="http://www.w3.org/2000/svg" xmlns:xlink="http://www.w3.org/1999/xlink" viewBox="0 0 696.08 497.48"><defs><clipPath id="clip-path"><rect x="25.88" y="39.34" width="750" height="500" style="fill:none"/></clipPath></defs><title>ncov-fight-spray</title><g style="isolation:isolate"><g id="Layer_2" data-name="Layer 2"><g id="Layer_1-2" data-name="Layer 1"><g style="clip-path:url(#clip-path)"><path d="M270,1.56s76.54-9.85,89.79,20c27.93,62.85,85.79,32.59,115.72,85.8s-26.27,124.37,20.29,182.9S334.22,357.38,318.93,410.59,174.6,376,136.69,427.88s-83.8,90.45-114.39,57.2-10-468.22-10-468.22Z" style="fill:#fdfdfd;opacity:0.5"/><path d="M333.89,32.49s87.79-19.62,82.8,68.17,92.23,140.11,104.64,159c0,0-60.74-22.61-60.74,7.32s4,162.61-119.72,133.68S272,450.49,235.13,487.4,59.54,378.66,5.67,452.49V27.5Z" style="fill:#fdfdfd"/><path d="M94.15,390.33c-.27-.14-.8.3-1.46,1.13-.26.33-.55.73-.84,1.18-3.88.41-9.61-3.2-14-6.55A33.49,33.49,0,0,0,80,374.85c3.54-2.61,10.35-2.2,12.57-2,.26,1.55.64,2.63,1,2.6s.66-2,.46-4.35-.72-4.25-1.18-4.21c-.22,0-.39.52-.47,1.3,0,.32,0,.69-.06,1.08-2.49,2-8.25,1.81-12.51,1.34a33.55,33.55,0,0,0-2.67-9.82c3.64-4.06,10.63-6.54,13.14-7.33,1.12,1.77,2.16,2.89,2.56,2.68s-.22-2.78-1.7-5.58S88,345.75,87.45,346c-.27.14-.22.83.09,1.84a14.44,14.44,0,0,0,.49,1.36c-1.83,3.35-7.82,6-13,7.66a33.47,33.47,0,0,0-6.31-7.53c-.66-.58-1.34-1.13-2-1.65.52-4.14,4.16-8.74,5.47-10.3,1.42.68,2.53,1,2.7.68s-1.25-1.68-3.31-2.86-3.9-1.83-4.13-1.43c-.11.19.2.61.8,1.13.24.21.53.43.86.67.17,2.88-2.65,7-5.28,10.15a32.82,32.82,0,0,0-10.63-4.15c-.6-5.05,1-11.08,1.75-13.34,2.09.09,3.6-.13,3.66-.58.07-.61-2.41-1.4-5.55-1.78s-5.74-.2-5.82.41c0,.3.57.65,1.58,1,.4.13.88.25,1.4.37,1.53,3.06.67,8.55-.65,13.41a33.62,33.62,0,0,0-14.13,1.75,27.94,27.94,0,0,1-4-8.86c1.37-.78,2.24-1.52,2.09-1.83s-2.09.07-4.23,1.08-3.72,2.17-3.53,2.58c.1.21.62.19,1.39,0a10,10,0,0,0,1-.33c2.11,1.28,3.7,4.84,4.81,8.32a33.27,33.27,0,0,0-10.46,7.27,39.55,39.55,0,0,1-8.44-8.13c1.26-1.67,2-3,1.6-3.34s-2.52,1.18-4.62,3.54-3.43,4.61-3,5c.23.2.86-.1,1.7-.74.34-.26.71-.58,1.1-.94,3,.43,6.54,3.53,9.57,6.92a33.28,33.28,0,0,0-6.4,12.8,39.82,39.82,0,0,1-10.89-3.1c.32-2.07.27-3.59-.18-3.7S1.34,361.62.62,364.7s-.83,5.69-.24,5.83c.3.07.71-.5,1.14-1.46a14.13,14.13,0,0,0,.53-1.35c2.8-1,7.22-.05,11.41,1.44a33.73,33.73,0,0,0,1.17,15.39,29.65,29.65,0,0,1-8.39,2.5c-.63-1.44-1.27-2.39-1.6-2.28s-.15,2.09.62,4.33S7,393,7.43,392.89c.22-.07.26-.59.15-1.37,0-.32-.12-.68-.21-1.07,1.39-1.81,4.71-3,8.05-3.7a33.26,33.26,0,0,0,7,10.84,38.91,38.91,0,0,1-9.18,7.69c-1.52-1.44-2.8-2.27-3.14-2s.9,2.64,3,5,4.2,3.92,4.65,3.51c.22-.2,0-.86-.55-1.77a14.09,14.09,0,0,0-.81-1.19c.79-3.07,4.5-6.36,8.37-9.05a33.24,33.24,0,0,0,12.75,6.82c-.11,3.84-2.06,8.18-2.85,9.79-1.54-.3-2.68-.32-2.78,0s1.63,1.32,3.91,2,4.23.81,4.36.37c.06-.22-.35-.55-1-.91-.29-.14-.63-.28-1-.43-.81-2.51.56-6.64,2.16-10.16a33.59,33.59,0,0,0,11.66.14c2,4.78,1.82,11.24,1.7,13.66-2.05.43-3.47,1-3.41,1.46.08.61,2.68.77,5.82.36s5.61-1.21,5.54-1.82c0-.3-.71-.49-1.76-.55a13.62,13.62,0,0,0-1.45,0c-2.35-2.73-2.8-8.71-2.64-13.94a33.17,33.17,0,0,0,11.21-5.67c3.84,1.8,7,7.07,8.06,8.91-1.13,1.09-1.8,2-1.58,2.29s2-.59,3.84-2.1,3.08-3,2.79-3.37c-.14-.17-.65,0-1.34.35q-.42.24-.93.57c-2.92-.89-6-5.41-8-9.12.6-.58,1.19-1.17,1.75-1.81A33.4,33.4,0,0,0,76,390.22c5.44.63,11.54,5,13.63,6.64-.82,1.93-1.15,3.42-.74,3.63s2.16-1.77,3.62-4.58S94.69,390.61,94.15,390.33Z" style="fill:#a1aa3b"/><path d="M51.39,346.85a1.23,1.23,0,1,1,.11,1.74A1.24,1.24,0,0,1,51.39,346.85Z" style="fill:#cbd74d"/><path d="M22.32,371.36a1.76,1.76,0,1,1-.15-2.49A1.77,1.77,0,0,1,22.32,371.36Z" style="fill:#cbd74d"/><path d="M40.57,398.69c-1.47,1.66-6.33-.26-10.85-4.28s-7-8.62-5.53-10.27,6.33.26,10.85,4.28S42,397,40.57,398.69Z" style="fill:#cbd74d"/><path d="M43.33,364.36c-3.45,6.85-8.55,11.24-11.39,9.81s-2.36-8.14,1.09-15,8.55-11.25,11.39-9.82S46.77,357.51,43.33,364.36Z" style="fill:#cbd74d"/><path d="M54.36,403.35a2.64,2.64,0,1,1-.22-3.73A2.64,2.64,0,0,1,54.36,403.35Z" style="fill:#cbd74d"/><path d="M59.38,390.34c-4.41,3.33-9.74,3.71-11.89.85s-.34-7.87,4.07-11.2,9.73-3.7,11.89-.85S63.78,387,59.38,390.34Z" style="fill:#cbd74d"/><path d="M58.9,361.05c-3.09-2.74-3.88-6.89-1.77-9.26s6.32-2.08,9.41.66,3.88,6.89,1.77,9.27S62,363.8,58.9,361.05Z" style="fill:#cbd74d"/><path d="M72.89,384c-2.48.24-4.79-2.56-5.14-6.26s1.37-6.88,3.85-7.12,4.78,2.56,5.14,6.26S75.37,383.8,72.89,384Z" style="fill:#cbd74d"/><path d="M383.3,88.26c-.14.06-.15.42,0,1a7.11,7.11,0,0,0,.19.72c-1.13,1.68-4.47,2.76-7.25,3.38a17.34,17.34,0,0,0-3.76-4.57c.14-2.27,2.57-4.84,3.39-5.65.7.42,1.25.62,1.36.48s-.57-.92-1.57-1.63-1.93-1.13-2.06-.93.07.32.35.62l.41.38c0,1.64-2,3.87-3.63,5.41a17.2,17.2,0,0,0-4.78-2.21c-.4-2.79.94-6.39,1.46-7.64,1.08.14,1.87.1,1.92-.13s-1.18-.84-2.78-1.18-2.95-.37-3-.07.27.37.77.58c.2.09.44.17.7.26.72,1.83-.23,5.08-1.28,7.7a17,17,0,0,0-5.08,0c-.45.07-.89.15-1.33.25-1.47-1.58-2.09-4.55-2.27-5.59.74-.34,1.23-.68,1.17-.85s-1.09-.06-2.24.37-2,.94-1.94,1.16.31.13.72.06l.55-.12c1.2.89,1.89,3.37,2.27,5.47a17.05,17.05,0,0,0-5.18,2.84,18.94,18.94,0,0,1-4.71-5.13c.73-.8,1.15-1.47,1-1.65s-1.36.5-2.55,1.62-2,2.21-1.78,2.44.45,0,.91-.3c.19-.12.4-.27.62-.44,1.72.41,3.61,2.58,5.1,4.72a17.56,17.56,0,0,0-4,6.18,14.57,14.57,0,0,1-4.84-1.36c.15-.8.14-1.4,0-1.44s-.66.85-1,2-.37,2.2-.14,2.26.28-.19.45-.56a5.18,5.18,0,0,0,.22-.51c1.2-.41,3.15.14,4.9.86a17.08,17.08,0,0,0-.6,6.56,20.37,20.37,0,0,1-6,.64c-.24-1.05-.55-1.78-.79-1.74s-.37,1.39-.13,3,.69,2.89,1,2.85c.16,0,.25-.37.27-.92a6.41,6.41,0,0,0,0-.75c1.18-1,3.58-1.42,5.93-1.49a17.38,17.38,0,0,0,2.95,6.79,20.49,20.49,0,0,1-4.85,3.29c-.71-.82-1.33-1.3-1.52-1.16s.34,1.4,1.32,2.71,2,2.22,2.23,2,0-.44-.2-.93c-.1-.2-.22-.43-.36-.66.52-1.45,2.38-2.89,4.36-4.05a17.36,17.36,0,0,0,6.49,4.65,15.15,15.15,0,0,1-1.79,4.16c-.78-.23-1.37-.29-1.43-.13s.77.76,1.92,1.2,2.14.62,2.22.4-.15-.3-.49-.52a5.65,5.65,0,0,0-.5-.27c-.25-1.16.39-2.86,1.21-4.42a17.2,17.2,0,0,0,6.62.83,20,20,0,0,1,0,6.2c-1.08.12-1.83.35-1.82.59s1.34.52,3,.46,2.95-.36,2.94-.68c0-.15-.34-.28-.88-.37a7.4,7.4,0,0,0-.75-.07c-.95-1.34-1-3.9-.81-6.33a17.26,17.26,0,0,0,6.95-2.79,14,14,0,0,1,2.94,4.38c-.64.51-1,1-.92,1.11s1.06-.21,2.07-.9,1.73-1.41,1.6-1.6-.33,0-.71.11l-.5.25c-1.26-.51-2.45-2.43-3.31-4.23a17.4,17.4,0,0,0,3.93-4.58,18.37,18.37,0,0,1,6,3.86c-.51,1-.75,1.71-.55,1.84s1.2-.81,2.08-2.19,1.38-2.63,1.12-2.8-.44.12-.81.52c-.15.16-.32.35-.49.56-1.86,0-4.38-1.78-6.41-3.58a17.11,17.11,0,0,0,1.48-6.33c2-.93,5.15-.44,6.21-.24.06.81.21,1.38.39,1.39s.43-1,.44-2.22-.17-2.23-.41-2.23-.22.25-.31.65c0,.16-.06.35-.08.56-1.32.86-4.13.56-6.27.14,0-.43-.08-.86-.14-1.29a17.24,17.24,0,0,0-1-3.9c2-2,5.82-2.91,7.16-3.2.49,1,1,1.59,1.19,1.5s0-1.44-.61-3S383.59,88.14,383.3,88.26Z" style="fill:#a1aa3b"/><path d="M351.85,90.78a.64.64,0,1,1,.72.53A.62.62,0,0,1,351.85,90.78Z" style="fill:#cbd74d"/><path d="M351.91,110.45a.92.92,0,1,1-1.81.27.92.92,0,0,1,1.81-.27Z" style="fill:#cbd74d"/><path d="M368.82,112.3c.16,1.13-2.21,2.42-5.31,2.88s-5.74-.08-5.91-1.22,2.2-2.42,5.3-2.88S368.65,111.16,368.82,112.3Z" style="fill:#cbd74d"/><path d="M356.11,99.8c1.57,3.64,1.62,7.12.11,7.78s-4-1.78-5.59-5.42-1.62-7.13-.1-7.78S354.54,96.15,356.11,99.8Z" style="fill:#cbd74d"/><path d="M375.25,108.37a1.37,1.37,0,1,1-1.56-1.15A1.38,1.38,0,0,1,375.25,108.37Z" style="fill:#cbd74d"/><path d="M371.75,102.06c-.14,2.86-1.76,5.1-3.61,5s-3.23-2.48-3.09-5.34,1.76-5.09,3.61-5S371.9,99.21,371.75,102.06Z" style="fill:#cbd74d"/><path d="M360,92.52c-2.12.31-4-.75-4.27-2.38S357,87,359.1,86.63s4,.75,4.27,2.38S362.09,92.21,360,92.52Z" style="fill:#cbd74d"/><path d="M373.74,94.61c-.73,1.06-2.6,1-4.19,0s-2.27-2.83-1.54-3.9,2.6-1,4.19,0S374.47,93.54,373.74,94.61Z" style="fill:#cbd74d"/><path d="M146.66,334.16c-.14.06-.15.41,0,.94,0,.21.11.45.19.71-1.11,1.65-4.39,2.71-7.12,3.32a17,17,0,0,0-3.7-4.49c.14-2.24,2.52-4.76,3.33-5.55.69.41,1.24.61,1.34.46s-.56-.9-1.54-1.6-1.9-1.1-2-.91.07.32.35.61l.4.37c0,1.61-2,3.81-3.56,5.32a17,17,0,0,0-4.7-2.17c-.39-2.75.92-6.28,1.43-7.51,1.06.14,1.83.1,1.88-.13s-1.15-.82-2.73-1.16-2.9-.36-3-.06c0,.15.26.35.75.56.2.09.43.17.69.26.71,1.8-.23,5-1.26,7.56a17,17,0,0,0-5,0c-.44.07-.88.16-1.31.26-1.44-1.56-2-4.48-2.23-5.5.73-.33,1.21-.67,1.15-.83s-1.07-.06-2.2.35-2,.93-1.9,1.15.3.12.7.06l.54-.12c1.18.87,1.86,3.31,2.23,5.37a16.79,16.79,0,0,0-5.09,2.79,18.64,18.64,0,0,1-4.63-5c.72-.78,1.13-1.44,1-1.61s-1.33.48-2.51,1.58-2,2.17-1.74,2.4.44,0,.9-.3c.18-.11.38-.26.6-.42,1.69.4,3.55,2.53,5,4.63a17,17,0,0,0-3.93,6.08,14.15,14.15,0,0,1-4.76-1.34c.14-.79.14-1.37,0-1.42s-.66.84-1,2-.37,2.16-.15,2.22.28-.18.45-.54q.1-.23.21-.51c1.19-.41,3.1.13,4.82.84a16.92,16.92,0,0,0-.58,6.45,20.46,20.46,0,0,1-5.93.64c-.24-1-.55-1.76-.78-1.72s-.36,1.37-.13,3,.68,2.84,1,2.8.25-.37.27-.9a6.22,6.22,0,0,0,0-.74c1.16-1,3.52-1.4,5.83-1.47a16.93,16.93,0,0,0,2.9,6.67,20,20,0,0,1-4.77,3.24c-.7-.8-1.31-1.28-1.5-1.14s.34,1.38,1.3,2.67,1.95,2.18,2.19,2,0-.44-.19-.92c-.1-.19-.22-.41-.36-.65.51-1.42,2.34-2.83,4.29-4a17.1,17.1,0,0,0,6.38,4.58,15.23,15.23,0,0,1-1.76,4.09c-.77-.23-1.35-.29-1.41-.13s.76.74,1.89,1.18,2.1.6,2.19.39-.15-.3-.49-.51a4.31,4.31,0,0,0-.49-.27c-.25-1.13.38-2.8,1.19-4.34a16.85,16.85,0,0,0,6.51.81,20.29,20.29,0,0,1,0,6.1c-1.06.12-1.8.35-1.79.58s1.32.51,2.93.45,2.9-.35,2.88-.66-.33-.29-.86-.37a7.25,7.25,0,0,0-.73-.07c-.94-1.31-1-3.83-.8-6.22a16.91,16.91,0,0,0,6.82-2.74,13.23,13.23,0,0,1,2.89,4.31c-.62.5-1,.94-.9,1.08s1.05-.2,2-.88,1.7-1.39,1.57-1.58-.33,0-.7.12l-.49.24c-1.24-.5-2.4-2.39-3.25-4.16a17.14,17.14,0,0,0,3.86-4.5,17.93,17.93,0,0,1,5.88,3.8c-.5.94-.74,1.68-.54,1.8s1.17-.79,2-2.15,1.36-2.58,1.1-2.75-.43.12-.8.51c-.14.15-.31.34-.47.55-1.84,0-4.31-1.75-6.3-3.52a17,17,0,0,0,1.45-6.22c2-.91,5.06-.44,6.1-.24.06.8.21,1.36.38,1.37s.43-1,.44-2.18-.17-2.19-.4-2.19-.23.24-.31.64c0,.16,0,.34-.08.54-1.3.85-4.05.56-6.16.14,0-.42-.08-.84-.14-1.27a17.29,17.29,0,0,0-1-3.83c2-1.91,5.72-2.86,7-3.14.49.95,1,1.56,1.18,1.47s0-1.42-.6-2.9S146.94,334,146.66,334.16Z" style="fill:#a1aa3b"/><path d="M115.74,336.63a.63.63,0,0,1,1.24-.18.62.62,0,0,1-.53.71A.63.63,0,0,1,115.74,336.63Z" style="fill:#cbd74d"/><path d="M115.8,356a.89.89,0,1,1-1-.76A.9.9,0,0,1,115.8,356Z" style="fill:#cbd74d"/><path d="M132.42,357.78c.17,1.11-2.17,2.38-5.21,2.84s-5.65-.09-5.82-1.2,2.17-2.39,5.22-2.84S132.26,356.67,132.42,357.78Z" style="fill:#cbd74d"/><path d="M119.93,345.49c1.55,3.58,1.6,7,.11,7.65s-3.94-1.74-5.49-5.33-1.59-7-.1-7.64S118.39,341.91,119.93,345.49Z" style="fill:#cbd74d"/><path d="M138.74,353.92a1.34,1.34,0,1,1-1.53-1.13A1.35,1.35,0,0,1,138.74,353.92Z" style="fill:#cbd74d"/><path d="M135.31,347.72c-.15,2.81-1.74,5-3.55,4.92s-3.18-2.45-3-5.25,1.73-5,3.55-4.91S135.45,344.92,135.31,347.72Z" style="fill:#cbd74d"/><path d="M123.73,338.34c-2.08.31-4-.74-4.19-2.33s1.26-3.15,3.33-3.45,4,.73,4.19,2.33S125.81,338,123.73,338.34Z" style="fill:#cbd74d"/><path d="M137.26,340.4c-.71,1-2.56,1-4.12,0s-2.23-2.79-1.52-3.83,2.57-1,4.12,0S138,339.35,137.26,340.4Z" style="fill:#cbd74d"/><path d="M461.19,176.79c-.07,0-.2.08-.37.29a2.43,2.43,0,0,0-.21.29c-1,.11-2.42-.8-3.52-1.65a8.34,8.34,0,0,0,.52-2.83,5.35,5.35,0,0,1,3.17-.49c.06.39.16.66.25.65s.17-.5.12-1.09-.19-1.07-.3-1.07-.1.13-.12.33,0,.18,0,.27c-.62.5-2.07.46-3.15.34a8.24,8.24,0,0,0-.67-2.47,8.32,8.32,0,0,1,3.31-1.85c.28.45.54.73.65.68s-.06-.7-.43-1.41-.79-1.21-.92-1.14-.05.21,0,.46.08.22.13.35c-.46.84-2,1.5-3.28,1.92a8.32,8.32,0,0,0-1.58-1.89l-.51-.42a6,6,0,0,1,1.37-2.59c.36.17.64.24.68.17s-.31-.42-.83-.72-1-.46-1-.36.05.15.2.28a1.4,1.4,0,0,0,.22.17,4.78,4.78,0,0,1-1.33,2.56,8.41,8.41,0,0,0-2.68-1,9,9,0,0,1,.44-3.36c.53,0,.91,0,.92-.14s-.6-.36-1.4-.45-1.44,0-1.46.1.14.17.4.25l.35.09a5.54,5.54,0,0,1-.16,3.38,8.45,8.45,0,0,0-3.56.44,7,7,0,0,1-1-2.23c.34-.2.56-.39.52-.47s-.52,0-1.06.28-.94.55-.89.65.15.05.35,0l.26-.08a4,4,0,0,1,1.21,2.09,8.22,8.22,0,0,0-2.63,1.83,9.55,9.55,0,0,1-2.13-2.05c.32-.42.49-.76.4-.84s-.63.3-1.16.89-.87,1.16-.75,1.27.21,0,.43-.19a2.6,2.6,0,0,0,.27-.24,4.93,4.93,0,0,1,2.41,1.75,8.42,8.42,0,0,0-1.61,3.22,10,10,0,0,1-2.74-.78c.08-.52.07-.9,0-.93s-.41.56-.6,1.34-.2,1.43-.06,1.47.18-.13.29-.37a2.2,2.2,0,0,0,.13-.34,4.8,4.8,0,0,1,2.88.36,8.49,8.49,0,0,0,.29,3.88,7.64,7.64,0,0,1-2.11.63c-.16-.37-.32-.61-.4-.58s0,.53.15,1.09.44,1,.55,1,.06-.15,0-.35a1.68,1.68,0,0,0-.06-.27,3.77,3.77,0,0,1,2-.93,8.35,8.35,0,0,0,1.76,2.73,9.61,9.61,0,0,1-2.31,1.94c-.38-.37-.71-.57-.79-.5s.22.67.76,1.26,1.05,1,1.17.88,0-.21-.14-.44a3.11,3.11,0,0,0-.2-.3,5.11,5.11,0,0,1,2.1-2.28,8.51,8.51,0,0,0,3.21,1.72,6.59,6.59,0,0,1-.71,2.46c-.39-.07-.68-.08-.7,0s.41.33,1,.49,1.07.2,1.1.09-.09-.13-.27-.22a1.17,1.17,0,0,0-.25-.11,4.32,4.32,0,0,1,.55-2.56,8.54,8.54,0,0,0,2.94,0,8.76,8.76,0,0,1,.42,3.44c-.51.11-.87.26-.85.37s.67.19,1.46.09,1.41-.3,1.4-.46-.18-.12-.45-.14h-.36c-.6-.69-.71-2.19-.67-3.51a8.18,8.18,0,0,0,2.82-1.43,5.85,5.85,0,0,1,2,2.24c-.29.28-.46.51-.4.58s.5-.15,1-.53.77-.76.7-.84-.17,0-.34.08l-.23.15c-.74-.23-1.5-1.37-2-2.3.15-.15.3-.3.44-.46a7.89,7.89,0,0,0,1.12-1.61,8.16,8.16,0,0,1,3.44,1.68c-.21.48-.29.86-.19.91s.54-.44.91-1.15S461.32,176.86,461.19,176.79Z" style="fill:#a1aa3b"/><path d="M450.42,165.84a.31.31,0,0,1,.44,0,.3.3,0,0,1,0,.44.31.31,0,0,1-.46-.42Z" style="fill:#cbd74d"/><path d="M443.1,172a.44.44,0,0,1-.63,0,.44.44,0,1,1,.63,0Z" style="fill:#cbd74d"/><path d="M447.7,178.9c-.37.42-1.6-.07-2.74-1.08s-1.76-2.17-1.39-2.59,1.59.07,2.73,1.08S448.07,178.48,447.7,178.9Z" style="fill:#cbd74d"/><path d="M448.39,170.25c-.87,1.73-2.15,2.83-2.87,2.47s-.59-2.05.28-3.77,2.15-2.83,2.87-2.47S449.26,168.53,448.39,170.25Z" style="fill:#cbd74d"/><path d="M451.17,180.07a.67.67,0,1,1-.06-.94A.67.67,0,0,1,451.17,180.07Z" style="fill:#cbd74d"/><path d="M452.43,176.8c-1.11.83-2.45.93-3,.21s-.09-2,1-2.82,2.45-.93,3-.21S453.54,176,452.43,176.8Z" style="fill:#cbd74d"/><path d="M452.31,169.42a1.5,1.5,0,1,1,2.37.17A1.71,1.71,0,0,1,452.31,169.42Z" style="fill:#cbd74d"/><path d="M455.83,175.21c-.62.06-1.2-.65-1.29-1.58s.34-1.73,1-1.79,1.2.64,1.29,1.57S456.46,175.15,455.83,175.21Z" style="fill:#cbd74d"/><path d="M428.78,83.24a35.72,35.72,0,0,0-4.47,15.61c-.42,7.27-.29,19,3.47,29.74,6,17.07,19.17,29.15,25.6,19.95s-5-33.69-7.53-50.21C442.91,79.32,436.09,70.38,428.78,83.24Z" style="fill:#fdfdfd"/></g><path d="M696.08,439.73c0,3.67-46.12,6.65-103,6.65s-103-3-103-6.65,46.12-6.64,103-6.64S696.08,436.07,696.08,439.73Z" style="fill:#3294dc"/><path d="M552.52,270.41l-6-2.75s-5-4.89-6.08-5c-4.53-.25-6.22.36-4.15,1.94,1.59,1.22,4.32,2.36-2.41.64a17.28,17.28,0,0,1-3-1.62c-1-.77-2.37-.15-2.41.65s4,3.21,5.54,3.74a18.27,18.27,0,0,1-6.8-3.8,1.57,1.57,0,0,0-1.76.29c-.92.76-.21,1.56,1.43,3.1s6.82,3.66,6.82,3.66a32.16,32.16,0,0,1-8.06-4c-1.38-1-2.5.94-1.1,2.18a34.82,34.82,0,0,0,8.68,4.71c2.16.57-5.61-2.23-6.22-1.43s.88,2.13,2.55,2.6,8.27,2.31,10.31,2.45a105.94,105.94,0,0,0,11.7-.45C552.88,274,550.66,272,552.52,270.41Z" style="fill:#3773c0"/><path d="M518.86,253.25l24.77,15a2.17,2.17,0,0,1,.8,3.2h0a2.16,2.16,0,0,1-2.73.71L515.14,261a2.18,2.18,0,0,1-.91-3.11l1.78-3.82A2.19,2.19,0,0,1,518.86,253.25Z" style="fill:#323232"/><path d="M637.32,418.88a41.3,41.3,0,0,0,2.69,7.18c1.39,2.88,3.28,6.54,1.49,8.68-1,1.18-8.74,5.37-17.64,9-7.23,3-14.24,1.15-15.74.78-3.35-.83-5.62-7.6,1-10.67s10.54-1.5,11-5a25.61,25.61,0,0,0-.15-7.07Z" style="fill:#323232"/><path d="M625,310.2s5.5,13.14,4.74,24.44.19,22.12-.19,28.27-.95,12.8-.19,15.63,10.44,21.45,11.77,29.93,2.24,10.31-3.27,11.8-19,7.15-22.94,3.66c-6.32-5.56-4.72-9-6.24-21.95s-8.92-18.79-8.92-31.26a114,114,0,0,1,4.93-32.42c2.47-7.81,9.87-26.93,10.82-26.93S625,310.2,625,310.2Z" style="fill:#f3f4f3"/><path d="M584.76,424.56a41.89,41.89,0,0,0,.18,7.67c.36,3.18,2.7,7.57.3,9s-34.81,3.87-37.7,2-2.82-9,4.46-9.74,11.66-2,13.28-5.15a25.71,25.71,0,0,0,2.19-6.72Z" style="fill:#323232"/><path d="M577.82,302.55c2.88,1.3-2.18,27.37-3.73,31.21s-9.6,26.4-9.72,31.06-2.94,19.16-2.6,32-2.7,24.31,1.62,28.41,21.2,5.21,24.54,2.18,1.46-37.94,2.07-45.43,7.38-19.88,12.72-32.09,8.41-9.76,13.18-11.05c13.46-3.66,16.61-25.94,9.08-28.6-7-2.47-3-7.66-3-7.66S577.11,302.23,577.82,302.55Z" style="fill:#f3f4f3"/><path d="M587.93,427.37c3.33-3,1.46-37.94,2.07-45.43s7.38-19.88,12.72-32.09c.29-.65,3.31-5.56,6-6.89,7.37-3.69,15.5-10.62,16-12.64-6.87,2.33-14.39,6.18-17.57,9.75a65.42,65.42,0,0,0-10.8,15.74c-3.11,6.66-11.83,23.05-11.31,23.89,3.57,5.82.22,30.65-1.22,34.09s-14.41.55-9.53,2.77,16.29,6.1,10.2,7.09-13.71,4.47-21.3,1.22a2.85,2.85,0,0,0,.27.32C567.7,429.29,584.59,430.4,587.93,427.37Z" style="fill:#cfcfcf;opacity:0.8"/><path d="M614.71,311c-12.69-6.49-15.57-15.52-22.94-21.22" style="fill:none;stroke:#323232;stroke-linecap:round;stroke-linejoin:round;stroke-width:2px"/><path d="M644.74,246.86c-.62-2.67-1.61-12.16-3.43-12.7s-15.15.74-16.36,3.21,2.11,12.51,2.11,12.51Z" style="fill:#dd9f00"/><path d="M644.5,245.6c-.63-3.61-1.6-11-3.19-11.44a14.31,14.31,0,0,0-3.36,0c.32,1.3.78,3.42.56,3.93s-8.23,3.63-13,6.17c.22.94.45,1.85.68,2.66C630.93,246.89,639.3,246.13,644.5,245.6Z" style="fill:#dd9f00;opacity:0.21;mix-blend-mode:multiply"/><path d="M622.57,248c1.19-3,21.61-6.5,24.93-3.23s8.85,47.9,7.79,56.29-28.51,5.18-28.51,5.18S620.1,254.33,622.57,248Z" style="fill:#ffc400"/><path d="M626.14,247.15s11.94-.62,18.32.59c0,0,6.2,17.31,6,33.41,0,0,1.4-18.34-3.79-35.26C646.69,245.89,643.2,242.91,626.14,247.15Z" style="fill:#ffd84e"/><path d="M630.32,293c1.06,0,17.73-1.84,17.73-1.84l.49,2.46s-16.23,1.14-18.36,1.14Z" style="fill:#323232"/><path d="M630.59,296.45c1.06,0,17.74-1.84,17.74-1.84l.49,2.46s-16.23,1.14-18.36,1.14Z" style="fill:#323232"/><path d="M630.81,299.67c1.06.05,17.73-1.84,17.73-1.84l.49,2.47s-16.23,1.14-18.36,1.13Z" style="fill:#323232"/><path d="M580.31,243.64s-3.76,54.38-2.17,58.22-1.15,5.44-1.48,8.51-2.67,7.68-1.67,13c1.22,6.43,32.7-1.11,42.13,1.44,6,1.62,15.29-1.44,13.08-6.65-.91-2.13-.33-7-2.58-13.34s0-17.72-2.3-23-1.59-6.85-3.73-13.1,1.42-7.19-2.14-16.07-5-16.33-7.68-18.43c-5.81-4.61-11.54-5.5-12.12-5.36s-4.39.81-4.39.81Z" style="fill:#f3f4f3"/><path d="M596.64,192.05s-16.46,1.09-18.29,4-3.29,11.33-3.29,11.33,1.66,9.71,2.72,14.18c.18.74,4.71,8.39,8.74,11.38.42.31,2.8,9,2.8,9l20.84-9.87-.54-12.9.1-3.19a28.85,28.85,0,0,0-6.56-19.44C601.19,194.19,598.94,192.34,596.64,192.05Z" style="fill:#f3f4f3"/><path d="M606.4,205s-5.1,6.42-5.47,6.65-6.25,2.75-6.25,2.75,8-1.89,9.48-2.81S606.4,205,606.4,205Z" style="fill:#cfcfcf;opacity:0.8"/><path d="M579.39,219.05s-1.95-6.78-1.95-10.23,2.36-8.71,3.21-9.31c1.55-1.1,10.93-.75,12.08,9.63s-.23,21.06-5.75,20.71S579.39,219.05,579.39,219.05Z" style="fill:#ff7e5c"/><path d="M625.21,288.75l1.88,14.75s-6.21-.23-14.19,9.31c-2.28,2.72-8.12,4.62-13.08,5.76-5.76,1.33-12.86-10.2-12.86-18.18S625.21,288.75,625.21,288.75Z" style="fill:#cfcfcf;opacity:0.8"/><path d="M618.11,298.84s4.17,4.81,9.16,4.7l-.58-5.17-6.58-2.63Z" style="fill:#323232"/><path d="M583.1,210.8c0,.09-.41,4-.64,5s-1.05,6.86,1.33,5.78C585.68,220.71,583.1,210.8,583.1,210.8Z" style="fill:#e1573a"/><path d="M578.79,219.68s2.5-2.93,5-3.62,9.22,2.67,9.22,2.67.9,9.87-5,11.25C580.87,231.66,578.79,219.68,578.79,219.68Z" style="fill:#3773c0"/><path d="M587.91,229.92c5.4-1.19,5.14-8.66,5.12-10.67-1.75-.36-5.42-1.06-5.42-.49,0,.75,2.7,5.63.57,6.72s-5.34.12-4.94,2.25a4.55,4.55,0,0,1,.1,1.18A5.59,5.59,0,0,0,587.91,229.92Z" style="fill:#3773c0;opacity:0.41000000000000003;mix-blend-mode:multiply"/><path d="M583.53,196.75s4.37.92,6,2.3,3.45,2.64,3.57,3.1a22.8,22.8,0,0,1,.34,2.87c0,.58,1,4.49,1,4.49s-.35-7.13-.35-7.59a9.5,9.5,0,0,0-2.3-2.93c-.34-.12-3.1-1.44-3.1-1.44Z" style="fill:#cfcfcf;opacity:0.8"/><path d="M608,224.09l5.25,7.6s8.79,2.29,11.45,3.17S634,249,635.39,260.55s2.6,25.6,2.61,31.37-20.88,7.67-29.23,17.79c-12.82,15.55-21.65-9.85-18.21-15,8.84-13.31,27.49-3.15,25.33-26.54-.85-9.28,4.33-18.32-.71-22.11C601.69,235.85,608,224.09,608,224.09Z" style="fill:#f3f4f3"/><path d="M593.17,232.77s-8.42,3.55-10.64,5.55-6.87,5.1-7.54,8.86-1.1,19.29-2.44,22.62-8-.06-8.9,0-8-2.29-10.6-2.07-5.1-2.88-7.21,6.32-.33,8.65.89,10.31,13.63,7.1,19.95,6.88,14.19,1.88,16.63-1.78,9-33,9-33Z" style="fill:#f3f4f3"/><path d="M577.26,291.45s.65-14.29,1.07-18.62,1.07-16,1.07-16l.22-5.65s.64,8,.42,15.63-1.92,18.9-1.92,23.55-.37,6.51-.32,8.92a33.57,33.57,0,0,0,.59,4.94,17.54,17.54,0,0,1-.91-6.38A47.09,47.09,0,0,0,577.26,291.45Z" style="fill:#cfcfcf;opacity:0.8"/><circle cx="639.84" cy="254.92" r="4.49" style="fill:#323232"/><path d="M641.11,408.47a55.88,55.88,0,0,0-3.39-10.69c-5.56-3.9-21.88-2.78-25.48-14.25-3.92-12.46,11-9,8.64-21.29-.77-4-7.71-21-8-24.9-3.3,2.35-8,8.59-11.28,10.94-1.79,7.37-1.86,12.87-1.86,22.44,0,12.47,7.4,18.29,8.92,31.26s-.08,16.39,6.24,21.95c4,3.49,17.44-2.16,22.94-3.66S642.43,417,641.11,408.47Z" style="fill:#cfcfcf;opacity:0.8"/><path d="M642.55,254.92a2.71,2.71,0,1,1-2.71-2.71A2.71,2.71,0,0,1,642.55,254.92Z" style="fill:#fff"/><path d="M537.5,262.73s-4.75.35-4.07,1.5A4.25,4.25,0,0,0,537,266c1.37,0,3.29-.3,3.45-.3s1.25.21,1.25.21Z" style="fill:#3773c0"/><path d="M639.84,254.92s2.35,18.6,4.54,32c2.69,16.35-16,34.39-33.14,21.92" style="fill:none;stroke:#323232;stroke-linecap:round;stroke-linejoin:round;stroke-width:2px"/><path d="M591.77,289.75a23.13,23.13,0,0,0-3.47-2.22c-12.86-6.65-20.79,7.87-7.82,15,9.86,5.44,39.57,82.17,13.14,94.94-39.91,19.29-24.94-111.4-50.55-127" style="fill:none;stroke:#323232;stroke-linecap:round;stroke-linejoin:round;stroke-width:2px"/><path d="M589.75,296.66l-3.36.77s-9.53-1.91-10-.91.5,3.17,2.5,3.34,2.67,1-3.5,4.17a17.39,17.39,0,0,1-3.34.79c-1.25.08-1.88,1.46-1.38,2.08s5.13-.25,6.63-.87a18.31,18.31,0,0,1-7.61,1.67,1.55,1.55,0,0,0-1.12,1.37c-.19,1.19.87,1.32,3.13,1.38s7.52-1.78,7.52-1.78a32,32,0,0,1-8.7,2.33c-1.68.19-1.25,2.37.63,2.37a34.49,34.49,0,0,0,9.61-2.23c2-1-5.25,3.19-5.19,4.19s1.5.56,3.07-.19a104.16,104.16,0,0,0,9.51-5.69,17.77,17.77,0,0,0,3-3.47A21.11,21.11,0,0,1,589.75,296.66Z" style="fill:#3773c0"/><path d="M620.39,233.55s-12.59,4.32-15.69,9.2,7.54,39.46,7.54,39.46l-5.32.89s-8.87-27.05-7.54-35.47,2-8.76,4.88-10.92,11.14-5,11.14-5S620.22,232.5,620.39,233.55Z" style="fill:#323232"/><path d="M607.25,249.85s6,13,8.65,18.29a19,19,0,0,1,1.22,12.3c-.34,1.33-20,6.86-22.28,8.31-3.11,2-4.88,7.4-4.88,7.4s1.66-6.73,4-8.06,18.51-7.1,20.51-9.42-2.55-6.54-3.22-12.86S607.25,249.85,607.25,249.85Z" style="fill:#cfcfcf"/><path d="M587,235.66s-6.87,7.53-6.87,12.63-.22,25.94-.22,25.94l-2.22,12.86-.44-27.93s-1.77-14.41-.66-16S582.09,235.66,587,235.66Z" style="fill:#323232"/><path d="M596.19,222.41s-.66,5.32-1.91,7.57-4.57,4.24-4.82,4.57,4.16-.83,6.23-1.5-1.24,4.41,1.92,2.41,8.39-6.07,8.31-5.15S610,226.9,610,226.9a50.4,50.4,0,0,1-8.21,2.77,25,25,0,0,0-5.93,2.11S597.72,225.63,596.19,222.41Z" style="fill:#cfcfcf;opacity:0.8"/><path d="M591.9,207c.5,0,10.31-1.33,10.81-1.44s4.76-1.83,4.76-1.83l.28.72s-3.6,2-4.66,2.44-10.86,3.1-10.86,3.1Z" style="fill:#323232"/><path d="M590,214,602,215.82l7.76-1.67v.67s-5.21,1.66-6.32,1.77-9.53.89-11.08,0-4-3-3.22-2.77Z" style="fill:#323232"/><path d="M577.11,206.26a35.23,35.23,0,0,0,7.15-.57c5.32-.75,7.19-1.92,8.22-.53s3.84,9.38,1,13.54-8.89-1.79-11.39-.6-4,2.38-4.29.24S572.23,206.94,577.11,206.26Z" style="fill:#323232"/><path d="M577.15,207.08a30.89,30.89,0,0,0,6.2-.5c4.6-.66,6.23-1.66,7.12-.46s3.33,8.13.89,11.73-7.71-1.55-9.87-.52-3.51,2.07-3.72.21S572.92,207.66,577.15,207.08Z" style="fill:#bbaa9d"/><path d="M592.48,205.16c-1-1.39-2.9-.23-8.22.53a35.23,35.23,0,0,1-7.15.57c-1.72.24-2.17,1.55-2,3.23,1-.09,2.35-.23,4-.47,5.31-.76,7.19-1.92,8.22-.54.87,1.19,3,7.2,1.9,11.51,1.65.4,3.2.29,4.28-1.29C596.32,214.54,593.51,206.54,592.48,205.16Z" style="fill:#323232;opacity:0.30000000000000004;mix-blend-mode:multiply"/><path d="M586.24,218.52a78.78,78.78,0,0,0,4.7-11.53,5.25,5.25,0,0,0-.47-.87c-.67-.91-1.77-.56-4.25,0a53.35,53.35,0,0,1-5.13,11.44l.4-.19C582.55,216.82,584.37,217.81,586.24,218.52Z" style="fill:#f3f4f3;opacity:0.4"/><path d="M591.3,207.88a54.29,54.29,0,0,1-4.76,10.75,7.19,7.19,0,0,0,2.36.5,75.81,75.81,0,0,0,3.41-7A19.56,19.56,0,0,0,591.3,207.88Z" style="fill:#f3f4f3;opacity:0.4"/></g></g></g></svg>